<svg id="Ebene_1" data-name="Ebene 1" xmlns="http://www.w3.org/2000/svg" viewBox="0 0 573.07 109.63"><defs><style>.cls-1{fill:#231f20;}</style></defs><path class="cls-1" d="M543.52,109.35h-4.63v-9.24h4.63a20.33,20.33,0,0,0,20.31-20.32c0-11.29-5.89-17.4-21.74-22.52C530,53.37,514,46.15,514,28.6a27.44,27.44,0,0,1,8.78-20.36A30.36,30.36,0,0,1,543.52.37h4.61V9.61h-4.61c-11.59,0-20.32,8.16-20.32,19,0,9,6.5,15,21.74,19.88,13.91,4.5,28.13,11.73,28.13,31.31A29.59,29.59,0,0,1,543.52,109.35Z"/><rect class="cls-1" x="213.72" y="0.31" width="9.24" height="108.9"/><path class="cls-1" d="M441.41,109.31a54.45,54.45,0,1,1,54.45-54.45A54.51,54.51,0,0,1,441.41,109.31Zm0-99.66a45.21,45.21,0,1,0,45.21,45.21A45.26,45.26,0,0,0,441.41,9.65Z"/><path class="cls-1" d="M26.09,109.63c-3,0-5,0-5.35,0H0V.31H20.74c.35,0,2.32,0,5.35,0,9.77,0,27.65.37,37.55,2.85,26.66,6.67,42,25.57,42,51.83h0c0,26.27-15.3,45.16-42,51.83C53.74,109.26,35.86,109.63,26.09,109.63ZM9.24,100.34H20.89s2,0,5.2,0c7.53,0,26-.25,35.31-2.57,22.54-5.64,35-20.87,35-42.87s-12.42-37.24-35-42.88C52.13,9.75,33.62,9.5,26.09,9.5c-3.16,0-5.18.05-5.2.05H9.24Z"/><polygon class="cls-1" points="181.18 9.46 181.18 0.22 130.31 0.22 130.31 50.14 130.31 59.38 130.31 109.31 181.18 109.31 181.18 100.07 139.54 100.07 139.54 59.38 180.99 59.38 180.99 50.14 139.54 50.14 139.54 9.46 181.18 9.46"/><polygon class="cls-1" points="355.33 0 307.73 62.55 260.28 0 253.6 0 253.6 109.21 262.84 109.21 262.84 18.67 307.72 77.83 352.76 18.63 352.76 109.21 362 109.21 362 0 355.33 0"/></svg>