<svg id="Layer_1" data-name="Layer 1" xmlns="http://www.w3.org/2000/svg" xmlns:xlink="http://www.w3.org/1999/xlink" viewBox="0 0 284.94 192.47"><defs><linearGradient id="Unbenannter_Verlauf_10" x1="0.81" y1="47.64" x2="305.35" y2="47.64" gradientUnits="userSpaceOnUse"><stop offset="0" stop-color="#d50006"/><stop offset="1" stop-color="#51247a"/></linearGradient><linearGradient id="Unbenannter_Verlauf_10-2" x1="0.81" y1="47.37" x2="305.35" y2="47.37" xlink:href="#Unbenannter_Verlauf_10"/></defs><path d="M12.35,173.23h2.49L16.73,188H14.92l-1.55-12.52L9.38,188h-2L3.43,175.46,1.84,188H0l2-14.75H4.56L8.4,185.6Z" style="fill:#181716"/><path d="M18.88,174.43a1.11,1.11,0,0,1,1.22-1.22,1.14,1.14,0,0,1,1.22,1.22,1.11,1.11,0,0,1-1.22,1.18A1.08,1.08,0,0,1,18.88,174.43Zm.37,3.6H21V188H19.25Z" style="fill:#181716"/><path d="M26.52,185.1c0,.91.39,1.48,1.35,1.48a3.73,3.73,0,0,0,1.35-.3l.17,1.5a4.88,4.88,0,0,1-2,.42c-1.81,0-2.58-1.16-2.58-2.91v-5.75H22.9v-1.29l1.89-.22v-2.49l1.73-.32V178h2.66v1.51H26.52Z" style="fill:#181716"/><path d="M39.59,178v10.71c0,2.07-1.57,3.69-4.17,3.69s-3.9-1.42-3.9-3h1.57c0,.74.85,1.57,2.33,1.57a2.17,2.17,0,0,0,2.42-2.18V187a3.56,3.56,0,0,1-2.73,1.25c-2.92,0-4.25-2-4.25-5.2s1.38-5.19,4.24-5.19A3.5,3.5,0,0,1,37.91,179v-1Zm-4.17,8.55a2.94,2.94,0,0,0,2.42-1.2v-4.75a2.85,2.85,0,0,0-2.42-1.2c-2.14,0-2.77,1.48-2.77,3.57S33.26,186.58,35.42,186.58Z" style="fill:#181716"/><path d="M44.19,172.93v12.23c0,.85.22,1.25,1,1.25h.54V188h-1c-1.72,0-2.26-1-2.26-2.66V172.93Z" style="fill:#181716"/><path d="M47.27,174.43a1.11,1.11,0,0,1,1.22-1.22,1.14,1.14,0,0,1,1.23,1.22,1.11,1.11,0,0,1-1.23,1.18A1.08,1.08,0,0,1,47.27,174.43Zm.37,3.6h1.75V188H47.64Z" style="fill:#181716"/><path d="M59.12,185.62,60,186.8a5.12,5.12,0,0,1-3.58,1.4c-3.27,0-4.56-2.16-4.56-5.22,0-2.85,1.38-5.17,4.37-5.17,2.79,0,4,2.05,4,4.19a12.45,12.45,0,0,1-.13,1.55H53.6c0,1.88.85,3.14,2.81,3.14A4.09,4.09,0,0,0,59.12,185.62Zm-.61-3.4a3.59,3.59,0,0,0,0-.44,2.25,2.25,0,0,0-2.33-2.5c-1.79,0-2.49,1.28-2.6,2.94Z" style="fill:#181716"/><path d="M69.2,172.93h1.72v15H69.24V187a3.84,3.84,0,0,1-2.92,1.16c-2.81,0-4.19-2-4.19-5.22s1.35-5.17,4.21-5.17A3.71,3.71,0,0,1,69.2,179Zm-2.49,13.65a2.81,2.81,0,0,0,2.49-1.2v-4.75a3,3,0,0,0-2.49-1.2c-2.13,0-2.79,1.46-2.79,3.55S64.58,186.58,66.71,186.58Z" style="fill:#181716"/><path d="M85.13,172.93h1.72v15H85.17V187a3.83,3.83,0,0,1-2.92,1.16c-2.81,0-4.19-2-4.19-5.22s1.35-5.17,4.21-5.17A3.69,3.69,0,0,1,85.13,179Zm-2.49,13.65a2.81,2.81,0,0,0,2.49-1.2v-4.75a3,3,0,0,0-2.49-1.2c-2.13,0-2.79,1.46-2.79,3.55S80.51,186.58,82.64,186.58Z" style="fill:#181716"/><path d="M96.59,185.62l.87,1.18a5.12,5.12,0,0,1-3.58,1.4c-3.27,0-4.56-2.16-4.56-5.22,0-2.85,1.38-5.17,4.36-5.17,2.8,0,4,2.05,4,4.19a12.45,12.45,0,0,1-.13,1.55H91.07c0,1.88.85,3.14,2.81,3.14A4.11,4.11,0,0,0,96.59,185.62Zm-.62-3.4a2.37,2.37,0,0,0,0-.44,2.26,2.26,0,0,0-2.34-2.5c-1.78,0-2.48,1.28-2.59,2.94Z" style="fill:#181716"/><path d="M101.81,179.67a3,3,0,0,1,2.77-1.86,4,4,0,0,1,1.2.16l-.2,1.83a5.56,5.56,0,0,0-1.33-.2,2.65,2.65,0,0,0-2.42,1.88V188h-1.75V178h1.7v1.64Z" style="fill:#181716"/><path d="M119.68,176.2a3.49,3.49,0,0,0-3.19-1.55,2.53,2.53,0,0,0-2.84,2.55c0,1.25.7,1.83,2.1,2.25l2,.59c2.21.67,3.56,1.77,3.56,3.86,0,2.55-1.9,4.3-5,4.3-3.31,0-4.49-1.6-5.06-2.8l1.42-1c.5,1.11,1.29,2.11,3.64,2.11,2.07,0,3.1-1,3.1-2.55,0-1.29-.92-1.9-2.25-2.29l-2-.59c-2.2-.68-3.38-1.9-3.38-3.84,0-2.23,1.48-4.27,4.75-4.27a5.06,5.06,0,0,1,4.56,2.16Z" style="fill:#181716"/><path d="M123.93,182.48v-9.25h1.88v9.27c0,2.9,1.24,4.06,3.55,4.06s3.56-1.16,3.56-4.06v-9.27h1.88v9.25c0,4.14-2.25,5.72-5.44,5.72S123.93,186.6,123.93,182.48Z" style="fill:#181716"/><path d="M140.15,182.18V188h-1.88V173.23H143c3.38,0,4.95,1.7,4.95,4.47s-1.57,4.48-4.95,4.48Zm0-1.6h2.7c2.36,0,3.14-1.17,3.14-2.88s-.78-2.87-3.14-2.87h-2.7Z" style="fill:#181716"/><path d="M158.06,176.2a3.48,3.48,0,0,0-3.18-1.55A2.53,2.53,0,0,0,152,177.2c0,1.25.7,1.83,2.1,2.25l2,.59c2.2.67,3.55,1.77,3.55,3.86,0,2.55-1.89,4.3-5,4.3-3.31,0-4.49-1.6-5.05-2.8l1.42-1c.5,1.11,1.28,2.11,3.63,2.11,2.08,0,3.1-1,3.1-2.55,0-1.29-.91-1.9-2.24-2.29l-2-.59c-2.2-.68-3.38-1.9-3.38-3.84,0-2.23,1.49-4.27,4.76-4.27a5.07,5.07,0,0,1,4.56,2.16Z" style="fill:#181716"/><path d="M162.45,173.23h1.87V188h-1.87Z" style="fill:#181716"/><path d="M1.47,107.43H15.54V111H5.88v6.41H14V121H5.88v9H1.47Z" style="fill:#181716"/><path d="M28.41,125.54l1.9,2.64a8.12,8.12,0,0,1-5.64,2.21c-5.28,0-7.52-3.35-7.52-8,0-4.31,2.37-8,7.08-8s6.45,3.3,6.45,6.61a12.32,12.32,0,0,1-.27,2.64H21.22a3.11,3.11,0,0,0,3.45,3.24A6,6,0,0,0,28.41,125.54Zm-1.54-4.71c0-.2.07-.4.07-.5a2.5,2.5,0,0,0-2.71-2.64c-2,0-2.87,1.4-3,3.14Z" style="fill:#181716"/><path d="M38.17,117.19a4.58,4.58,0,0,1,4.08-2.74,6.71,6.71,0,0,1,1.74.2l-.3,4.27a12.53,12.53,0,0,0-2.45-.3,3.28,3.28,0,0,0-2.94,1.81V130h-4V114.78h3.88v2.41Z" style="fill:#181716"/><path d="M46.86,114.78h3.91v1.74a5.39,5.39,0,0,1,4.71-2.07c3.45,0,5.22,2.1,5.22,6V130H56.62V121c0-1.83-.7-2.8-2.74-2.8a4.74,4.74,0,0,0-3,1.13V130h-4Z" style="fill:#181716"/><path d="M73.74,110.4H71.83c-1.34,0-1.73.81-1.73,2.14v2.24H74v3.44H70.1V130h-4v-11.8h-2.4v-3.11l2.4-.33v-2.27c0-3.61,1.81-5.55,5.55-5.55h2.14Z" style="fill:#181716"/><path d="M85.5,130v-1.77a6.18,6.18,0,0,1-4.85,2.14,4.18,4.18,0,0,1-4.47-4.45c0-3.34,2.87-4.81,7.38-5.11l1.67-.13v-1c0-1.27-.53-2.11-2.44-2.11-1.57,0-2.34.64-2.34,1.47v.6H77a5.35,5.35,0,0,1-.1-1c0-2.51,2.37-4.21,6.21-4.21s6.25,1.57,6.25,5.24V130Zm-3.31-2.71a4.47,4.47,0,0,0,3-1.3v-2.88l-1.63.24c-2.18.3-3.31,1-3.31,2.3C80.29,126.74,81,127.31,82.19,127.31Z" style="fill:#181716"/><path d="M99.84,114.45c2.81,0,5,1.13,6.11,3.4l-2.8,2a3.33,3.33,0,0,0-3-1.84c-2.37,0-3.27,1.84-3.27,4.38s.9,4.41,3.27,4.41a3.33,3.33,0,0,0,3-1.87l2.8,2c-1.07,2.27-3.3,3.41-6.11,3.41-5,0-7-3.68-7-8S94.8,114.45,99.84,114.45Z" style="fill:#181716"/><path d="M109.1,107h4v9.26a6.05,6.05,0,0,1,4.58-1.77c3.44,0,5.22,2.1,5.22,6V130h-4V121c0-1.83-.73-2.8-2.77-2.8a4.74,4.74,0,0,0-3,1.13V130h-4Z" style="fill:#181716"/><path d="M127.09,107h4v9.26a6,6,0,0,1,4.58-1.77c3.44,0,5.21,2.1,5.21,6V130h-4V121c0-1.83-.74-2.8-2.78-2.8a4.69,4.69,0,0,0-3,1.13V130h-4Z" style="fill:#181716"/><path d="M158.8,122.37c0,4.67-2.27,8-7.28,8-4.78,0-7.12-3.41-7.12-8s2.24-8,7.25-8C156.46,114.45,158.8,117.79,158.8,122.37Zm-4.14.06c0-2.87-1-4.34-3.11-4.34s-3,1.47-3,4.28,1,4.37,3.07,4.37S154.66,125.21,154.66,122.43Z" style="fill:#181716"/><path d="M168.8,114.45c2.8,0,5,1.13,6.11,3.4l-2.8,2a3.35,3.35,0,0,0-3-1.84c-2.37,0-3.27,1.84-3.27,4.38s.9,4.41,3.27,4.41a3.34,3.34,0,0,0,3-1.87l2.8,2c-1.07,2.27-3.31,3.41-6.11,3.41-5.05,0-7.05-3.68-7.05-8S163.75,114.45,168.8,114.45Z" style="fill:#181716"/><path d="M178.06,107h4v9.26a6,6,0,0,1,4.58-1.77c3.44,0,5.21,2.1,5.21,6V130h-4V121c0-1.83-.74-2.8-2.78-2.8a4.69,4.69,0,0,0-3,1.13V130h-4Z" style="fill:#181716"/><path d="M205.3,119.06a5.19,5.19,0,0,0-3.68-1.57c-1.4,0-2.07.67-2.07,1.47s.43,1.23,1.4,1.43l2.55.61c3,.66,4.34,2.3,4.34,4.51,0,2.4-1.64,4.88-6.62,4.88a7.71,7.71,0,0,1-6.21-2.58l2.3-2.4a5.53,5.53,0,0,0,4.08,2c1.37,0,2.34-.5,2.34-1.51,0-.66-.5-1.2-1.54-1.43l-2.64-.64c-2.67-.67-4-2.24-4-4.44s1.64-4.91,6.25-4.91a7.32,7.32,0,0,1,5.75,2.24Z" style="fill:#181716"/><path d="M217.67,114.45c2.8,0,5,1.13,6.11,3.4l-2.81,2a3.33,3.33,0,0,0-3-1.84c-2.37,0-3.28,1.84-3.28,4.38s.91,4.41,3.28,4.41a3.31,3.31,0,0,0,3-1.87l2.81,2c-1.07,2.27-3.31,3.41-6.11,3.41-5,0-7.06-3.68-7.06-8S212.62,114.45,217.67,114.45Z" style="fill:#181716"/><path d="M226.93,107h4v9.26a6,6,0,0,1,4.58-1.77c3.44,0,5.21,2.1,5.21,6V130h-4V121c0-1.83-.74-2.8-2.78-2.8a4.69,4.69,0,0,0-3,1.13V130h-4Z" style="fill:#181716"/><path d="M258.57,130h-3.9v-1.74a5.41,5.41,0,0,1-4.72,2.07c-3.44,0-5.2-2.1-5.2-6v-9.52h4.07v9c0,1.84.7,2.81,2.74,2.81a4.74,4.74,0,0,0,3-1.13V114.78h4Z" style="fill:#181716"/><path d="M266.8,107v18.11c0,1,.3,1.37,1.31,1.37h.73v3.74h-2.07c-3.11,0-4-2-4-4.51V107Z" style="fill:#181716"/><path d="M282.61,125.54l1.9,2.64a8.1,8.1,0,0,1-5.64,2.21c-5.28,0-7.52-3.35-7.52-8,0-4.31,2.37-8,7.09-8s6.44,3.3,6.44,6.61a12.32,12.32,0,0,1-.27,2.64h-9.18a3.1,3.1,0,0,0,3.44,3.24A6,6,0,0,0,282.61,125.54Zm-1.54-4.71a3.23,3.23,0,0,0,.07-.5,2.5,2.5,0,0,0-2.7-2.64c-2,0-2.88,1.4-3,3.14Z" style="fill:#181716"/><path d="M13,144.58a4.88,4.88,0,0,0-4.31-2c-2.07,0-3.21,1.2-3.21,2.84,0,1.34.67,2.17,2.34,2.71l2.87.87c4.05,1.27,5.52,3.34,5.52,6.21,0,4.38-3.41,6.92-8.12,6.92-5,0-7.15-2.37-8.09-4.15l3-2.47c.83,1.57,2,2.88,5.08,2.88,2.3,0,3.57-1.14,3.57-2.85,0-1.4-.83-2.2-2.54-2.73l-2.84-.87c-3.94-1.24-5.34-3.44-5.34-6.25,0-3.51,2.2-6.85,7.75-6.85,3.91,0,6.12,1.6,7.32,3.34Z" style="fill:#181716"/><path d="M26.27,146.15c2.81,0,5,1.14,6.11,3.41l-2.8,2a3.33,3.33,0,0,0-3-1.83c-2.37,0-3.27,1.83-3.27,4.37s.9,4.41,3.27,4.41a3.31,3.31,0,0,0,3-1.87l2.8,2c-1.07,2.27-3.3,3.41-6.11,3.41-5.05,0-7-3.68-7-8S21.22,146.15,26.27,146.15Z" style="fill:#181716"/><path d="M35.53,138.67h4v9.25a6.09,6.09,0,0,1,4.58-1.77c3.44,0,5.21,2.11,5.21,6v9.52h-4v-9.05c0-1.84-.74-2.81-2.77-2.81a4.72,4.72,0,0,0-3,1.14v10.72h-4Z" style="fill:#181716"/><path d="M66.28,146.48l3.27,11,3.08-11h4.18l-4.68,15.24H67.72l-3.34-10.09-3.31,10.09H56.62l-4.68-15.24h4.15l3.14,11,3.24-11Z" style="fill:#181716"/><path d="M90,157.24l1.9,2.64a8.13,8.13,0,0,1-5.65,2.21c-5.28,0-7.51-3.34-7.51-8,0-4.31,2.37-7.95,7.08-7.95s6.45,3.31,6.45,6.62a12.46,12.46,0,0,1-.27,2.64H82.76a3.11,3.11,0,0,0,3.44,3.24A6,6,0,0,0,90,157.24Zm-1.54-4.71c0-.2.07-.4.07-.5a2.51,2.51,0,0,0-2.71-2.64c-2,0-2.87,1.41-3,3.14Z" style="fill:#181716"/><path d="M95.33,141.27a2.23,2.23,0,0,1,2.47-2.4,2.25,2.25,0,0,1,2.41,2.4,2.19,2.19,0,0,1-2.41,2.34A2.16,2.16,0,0,1,95.33,141.27Zm.5,5.21h4v15.24h-4Z" style="fill:#181716"/><path d="M115.11,149.12l-6.54,9.16h6.51v3.44H103.49v-2.64l6.61-9.15h-6.31v-3.45h11.32Z" style="fill:#181716"/><polygon points="190.72 38.48 153.88 38.48 153.88 1.16 141.46 1.16 134.9 19.22 134.9 94.13 153.88 94.13 153.88 56.55 190.72 56.55 190.72 94.13 203.5 94.13 209.71 77.05 209.71 1.16 190.72 1.16 190.72 38.48" style="fill:url(#Unbenannter_Verlauf_10)"/><path d="M262.81,40.46l-7.46-2.75c-9.83-3.53-14.41-6-14.41-11.65s6-8.25,12.44-8.25h20.67L280.54,0H251.69c-18.07,0-29.86,10.34-29.86,27.89,0,12.7,8,21.34,22.91,26.58l7.86,2.75c9.16,3.15,13,5.44,13,10.68s-5,9-12.44,9h-26l-6.47,17.81h33.2c19.24,0,31-11.39,31.09-28C284.94,52.71,276.43,45.44,262.81,40.46Z" style="fill:url(#Unbenannter_Verlauf_10-2)"/><polygon points="1.47 94.13 20.46 94.13 20.46 56.55 42.82 56.55 49.4 38.48 20.46 38.48 20.46 19.23 51.46 19.23 58.04 1.16 1.47 1.16 1.47 94.13" style="fill:url(#Unbenannter_Verlauf_10)"/><polygon points="69.63 94.13 88.62 94.13 88.62 56.55 110.62 56.55 117.56 38.48 88.62 38.48 88.62 19.23 119.62 19.23 126.2 1.16 69.63 1.16 69.63 94.13" style="fill:url(#Unbenannter_Verlauf_10)"/></svg>